<mxfile host="app.diagrams.net" agent="Mozilla/5.0 (Windows NT 10.0; Win64; x64) AppleWebKit/537.36 (KHTML, like Gecko) Chrome/141.0.0.0 Safari/537.36" version="28.2.7">
  <diagram name="PÃ¡gina-1" id="x0EAJvNVMGjAKTITFKiO">
    <mxGraphModel dx="2505" dy="874" grid="1" gridSize="10" guides="1" tooltips="1" connect="1" arrows="1" fold="1" page="1" pageScale="1" pageWidth="827" pageHeight="1169" math="0" shadow="0">
      <root>
        <mxCell id="0" />
        <mxCell id="1" parent="0" />
        <mxCell id="lmmOF3_pl6mlVUFm9OXF-2" value="Produto" style="rounded=0;whiteSpace=wrap;html=1;fillColor=#e51400;fontColor=#ffffff;strokeColor=#B20000;" parent="1" vertex="1">
          <mxGeometry x="-91" y="305" width="120" height="60" as="geometry" />
        </mxCell>
        <mxCell id="lmmOF3_pl6mlVUFm9OXF-8" value="id_produto" style="ellipse;whiteSpace=wrap;html=1;fillColor=#e3c800;fontColor=#000000;strokeColor=#B09500;" parent="1" vertex="1">
          <mxGeometry x="-161" y="141" width="70" height="30" as="geometry" />
        </mxCell>
        <mxCell id="lmmOF3_pl6mlVUFm9OXF-10" value="descricao" style="ellipse;whiteSpace=wrap;html=1;" parent="1" vertex="1">
          <mxGeometry x="-161" y="192" width="70" height="30" as="geometry" />
        </mxCell>
        <mxCell id="lmmOF3_pl6mlVUFm9OXF-12" value="preco" style="ellipse;whiteSpace=wrap;html=1;" parent="1" vertex="1">
          <mxGeometry x="-161" y="243" width="70" height="30" as="geometry" />
        </mxCell>
        <mxCell id="lmmOF3_pl6mlVUFm9OXF-15" value="" style="endArrow=none;html=1;rounded=0;fontSize=12;startSize=8;endSize=8;curved=1;exitX=0.5;exitY=0;exitDx=0;exitDy=0;" parent="1" source="lmmOF3_pl6mlVUFm9OXF-2" edge="1">
          <mxGeometry width="50" height="50" relative="1" as="geometry">
            <mxPoint x="159" y="355" as="sourcePoint" />
            <mxPoint x="-31" y="275" as="targetPoint" />
          </mxGeometry>
        </mxCell>
        <mxCell id="lmmOF3_pl6mlVUFm9OXF-16" value="" style="endArrow=none;html=1;rounded=0;fontSize=12;startSize=8;endSize=8;curved=1;" parent="1" edge="1">
          <mxGeometry width="50" height="50" relative="1" as="geometry">
            <mxPoint x="19" y="275" as="sourcePoint" />
            <mxPoint x="-81" y="275" as="targetPoint" />
          </mxGeometry>
        </mxCell>
        <mxCell id="lmmOF3_pl6mlVUFm9OXF-17" value="" style="endArrow=none;html=1;rounded=0;fontSize=12;startSize=8;endSize=8;curved=1;" parent="1" edge="1">
          <mxGeometry width="50" height="50" relative="1" as="geometry">
            <mxPoint x="-81" y="276" as="sourcePoint" />
            <mxPoint x="-80" y="50" as="targetPoint" />
          </mxGeometry>
        </mxCell>
        <mxCell id="lmmOF3_pl6mlVUFm9OXF-18" style="edgeStyle=none;curved=1;rounded=0;orthogonalLoop=1;jettySize=auto;html=1;exitX=0;exitY=1;exitDx=0;exitDy=0;fontSize=12;startSize=8;endSize=8;" parent="1" source="lmmOF3_pl6mlVUFm9OXF-12" target="lmmOF3_pl6mlVUFm9OXF-12" edge="1">
          <mxGeometry relative="1" as="geometry" />
        </mxCell>
        <mxCell id="lmmOF3_pl6mlVUFm9OXF-22" value="" style="endArrow=none;html=1;rounded=0;fontSize=12;startSize=8;endSize=8;curved=1;" parent="1" edge="1">
          <mxGeometry width="50" height="50" relative="1" as="geometry">
            <mxPoint x="18" y="275" as="sourcePoint" />
            <mxPoint x="18" y="50" as="targetPoint" />
          </mxGeometry>
        </mxCell>
        <mxCell id="lmmOF3_pl6mlVUFm9OXF-24" value="" style="endArrow=none;html=1;rounded=0;fontSize=12;startSize=8;endSize=8;curved=1;exitX=1;exitY=0.5;exitDx=0;exitDy=0;" parent="1" source="lmmOF3_pl6mlVUFm9OXF-8" edge="1">
          <mxGeometry width="50" height="50" relative="1" as="geometry">
            <mxPoint x="159" y="251" as="sourcePoint" />
            <mxPoint x="-81" y="156" as="targetPoint" />
          </mxGeometry>
        </mxCell>
        <mxCell id="lmmOF3_pl6mlVUFm9OXF-27" value="" style="endArrow=none;html=1;rounded=0;fontSize=12;startSize=8;endSize=8;curved=1;exitX=1;exitY=0.5;exitDx=0;exitDy=0;" parent="1" source="lmmOF3_pl6mlVUFm9OXF-10" edge="1">
          <mxGeometry width="50" height="50" relative="1" as="geometry">
            <mxPoint x="-101" y="205" as="sourcePoint" />
            <mxPoint x="-81" y="207" as="targetPoint" />
          </mxGeometry>
        </mxCell>
        <mxCell id="lmmOF3_pl6mlVUFm9OXF-28" value="" style="endArrow=none;html=1;rounded=0;fontSize=12;startSize=8;endSize=8;curved=1;exitX=1;exitY=0.5;exitDx=0;exitDy=0;" parent="1" source="lmmOF3_pl6mlVUFm9OXF-12" edge="1">
          <mxGeometry width="50" height="50" relative="1" as="geometry">
            <mxPoint x="-111" y="245" as="sourcePoint" />
            <mxPoint x="-81" y="258" as="targetPoint" />
          </mxGeometry>
        </mxCell>
        <mxCell id="lmmOF3_pl6mlVUFm9OXF-29" value="img1" style="ellipse;whiteSpace=wrap;html=1;" parent="1" vertex="1">
          <mxGeometry x="30" y="141" width="70" height="30" as="geometry" />
        </mxCell>
        <mxCell id="lmmOF3_pl6mlVUFm9OXF-30" value="img2" style="ellipse;whiteSpace=wrap;html=1;" parent="1" vertex="1">
          <mxGeometry x="30" y="192" width="70" height="30" as="geometry" />
        </mxCell>
        <mxCell id="lmmOF3_pl6mlVUFm9OXF-31" value="img3" style="ellipse;whiteSpace=wrap;html=1;" parent="1" vertex="1">
          <mxGeometry x="29" y="243" width="72" height="30" as="geometry" />
        </mxCell>
        <mxCell id="lmmOF3_pl6mlVUFm9OXF-35" value="" style="endArrow=none;html=1;rounded=0;fontSize=12;startSize=8;endSize=8;curved=1;entryX=0;entryY=0.5;entryDx=0;entryDy=0;" parent="1" target="lmmOF3_pl6mlVUFm9OXF-29" edge="1">
          <mxGeometry width="50" height="50" relative="1" as="geometry">
            <mxPoint x="18" y="156" as="sourcePoint" />
            <mxPoint x="29" y="156" as="targetPoint" />
          </mxGeometry>
        </mxCell>
        <mxCell id="lmmOF3_pl6mlVUFm9OXF-36" value="" style="endArrow=none;html=1;rounded=0;fontSize=12;startSize=8;endSize=8;curved=1;entryX=0;entryY=0.5;entryDx=0;entryDy=0;" parent="1" target="lmmOF3_pl6mlVUFm9OXF-30" edge="1">
          <mxGeometry width="50" height="50" relative="1" as="geometry">
            <mxPoint x="18" y="207" as="sourcePoint" />
            <mxPoint x="29" y="207" as="targetPoint" />
          </mxGeometry>
        </mxCell>
        <mxCell id="lmmOF3_pl6mlVUFm9OXF-37" value="" style="endArrow=none;html=1;rounded=0;fontSize=12;startSize=8;endSize=8;curved=1;entryX=0.008;entryY=0.498;entryDx=0;entryDy=0;entryPerimeter=0;" parent="1" target="lmmOF3_pl6mlVUFm9OXF-31" edge="1">
          <mxGeometry width="50" height="50" relative="1" as="geometry">
            <mxPoint x="18" y="258" as="sourcePoint" />
            <mxPoint x="28" y="258" as="targetPoint" />
          </mxGeometry>
        </mxCell>
        <mxCell id="lmmOF3_pl6mlVUFm9OXF-44" style="edgeStyle=none;curved=1;rounded=0;orthogonalLoop=1;jettySize=auto;html=1;exitX=0;exitY=1;exitDx=0;exitDy=0;fontSize=12;startSize=8;endSize=8;" parent="1" edge="1">
          <mxGeometry relative="1" as="geometry">
            <mxPoint x="208.75126265847098" y="268.6066017177982" as="sourcePoint" />
            <mxPoint x="208.8448296636227" y="268.646550827072" as="targetPoint" />
          </mxGeometry>
        </mxCell>
        <mxCell id="lmmOF3_pl6mlVUFm9OXF-57" value="Administrador" style="rounded=0;whiteSpace=wrap;html=1;fillColor=#e51400;fontColor=#ffffff;strokeColor=#B20000;" parent="1" vertex="1">
          <mxGeometry x="269" y="1061" width="120" height="60" as="geometry" />
        </mxCell>
        <mxCell id="lmmOF3_pl6mlVUFm9OXF-58" value="Usuario" style="rounded=0;whiteSpace=wrap;html=1;fillColor=#e51400;fontColor=#ffffff;strokeColor=#B20000;" parent="1" vertex="1">
          <mxGeometry x="-91" y="800" width="120" height="60" as="geometry" />
        </mxCell>
        <mxCell id="lmmOF3_pl6mlVUFm9OXF-59" value="Consulta" style="rhombus;whiteSpace=wrap;html=1;fillColor=#60a917;fontColor=#ffffff;strokeColor=#2D7600;" parent="1" vertex="1">
          <mxGeometry x="-71" y="669" width="80" height="80" as="geometry" />
        </mxCell>
        <mxCell id="lmmOF3_pl6mlVUFm9OXF-60" value="Concede" style="rhombus;whiteSpace=wrap;html=1;fillColor=#60a917;fontColor=#ffffff;strokeColor=#2D7600;" parent="1" vertex="1">
          <mxGeometry x="-70.5" y="1051" width="80" height="80" as="geometry" />
        </mxCell>
        <mxCell id="lmmOF3_pl6mlVUFm9OXF-62" value="" style="endArrow=none;html=1;rounded=0;fontSize=12;startSize=8;endSize=8;curved=1;exitX=0.5;exitY=0;exitDx=0;exitDy=0;entryX=0.5;entryY=1;entryDx=0;entryDy=0;" parent="1" source="lmmOF3_pl6mlVUFm9OXF-59" target="lmmOF3_pl6mlVUFm9OXF-144" edge="1">
          <mxGeometry width="50" height="50" relative="1" as="geometry">
            <mxPoint x="149" y="485" as="sourcePoint" />
            <mxPoint x="199" y="435" as="targetPoint" />
          </mxGeometry>
        </mxCell>
        <mxCell id="lmmOF3_pl6mlVUFm9OXF-63" value="" style="endArrow=none;html=1;rounded=0;fontSize=12;startSize=8;endSize=8;curved=1;exitX=0.5;exitY=1;exitDx=0;exitDy=0;entryX=0.5;entryY=0;entryDx=0;entryDy=0;" parent="1" source="lmmOF3_pl6mlVUFm9OXF-59" target="lmmOF3_pl6mlVUFm9OXF-58" edge="1">
          <mxGeometry width="50" height="50" relative="1" as="geometry">
            <mxPoint x="149" y="731" as="sourcePoint" />
            <mxPoint x="199" y="681" as="targetPoint" />
          </mxGeometry>
        </mxCell>
        <mxCell id="lmmOF3_pl6mlVUFm9OXF-64" value="" style="endArrow=none;html=1;rounded=0;fontSize=12;startSize=8;endSize=8;curved=1;exitX=0.5;exitY=0;exitDx=0;exitDy=0;entryX=0.5;entryY=1;entryDx=0;entryDy=0;" parent="1" source="lmmOF3_pl6mlVUFm9OXF-60" target="lmmOF3_pl6mlVUFm9OXF-58" edge="1">
          <mxGeometry width="50" height="50" relative="1" as="geometry">
            <mxPoint x="149" y="961" as="sourcePoint" />
            <mxPoint x="199" y="911" as="targetPoint" />
          </mxGeometry>
        </mxCell>
        <mxCell id="lmmOF3_pl6mlVUFm9OXF-67" value="" style="endArrow=none;html=1;rounded=0;fontSize=12;startSize=8;endSize=8;curved=1;exitX=1;exitY=0.5;exitDx=0;exitDy=0;entryX=0;entryY=0.5;entryDx=0;entryDy=0;" parent="1" source="lmmOF3_pl6mlVUFm9OXF-60" target="lmmOF3_pl6mlVUFm9OXF-57" edge="1">
          <mxGeometry width="50" height="50" relative="1" as="geometry">
            <mxPoint x="185" y="1091.0000000000002" as="sourcePoint" />
            <mxPoint x="199" y="911" as="targetPoint" />
          </mxGeometry>
        </mxCell>
        <mxCell id="lmmOF3_pl6mlVUFm9OXF-69" value="1" style="text;html=1;align=center;verticalAlign=middle;resizable=0;points=[];autosize=1;strokeColor=none;fillColor=none;fontSize=16;" parent="1" vertex="1">
          <mxGeometry x="218" y="1061" width="30" height="30" as="geometry" />
        </mxCell>
        <mxCell id="lmmOF3_pl6mlVUFm9OXF-71" value="N" style="text;html=1;align=center;verticalAlign=middle;resizable=0;points=[];autosize=1;strokeColor=none;fillColor=none;fontSize=16;" parent="1" vertex="1">
          <mxGeometry x="-64" y="892" width="40" height="30" as="geometry" />
        </mxCell>
        <mxCell id="lmmOF3_pl6mlVUFm9OXF-72" value="1" style="text;html=1;align=center;verticalAlign=middle;resizable=0;points=[];autosize=1;strokeColor=none;fillColor=none;fontSize=16;" parent="1" vertex="1">
          <mxGeometry x="-59" y="770" width="30" height="30" as="geometry" />
        </mxCell>
        <mxCell id="lmmOF3_pl6mlVUFm9OXF-73" value="N" style="text;html=1;align=center;verticalAlign=middle;resizable=0;points=[];autosize=1;strokeColor=none;fillColor=none;fontSize=16;" parent="1" vertex="1">
          <mxGeometry x="-61" y="640" width="40" height="30" as="geometry" />
        </mxCell>
        <mxCell id="lmmOF3_pl6mlVUFm9OXF-85" value="" style="endArrow=none;html=1;rounded=0;fontSize=12;startSize=8;endSize=8;curved=1;entryX=1;entryY=0.5;entryDx=0;entryDy=0;" parent="1" target="lmmOF3_pl6mlVUFm9OXF-58" edge="1">
          <mxGeometry width="50" height="50" relative="1" as="geometry">
            <mxPoint x="69" y="830" as="sourcePoint" />
            <mxPoint x="219" y="1021" as="targetPoint" />
          </mxGeometry>
        </mxCell>
        <mxCell id="lmmOF3_pl6mlVUFm9OXF-86" value="" style="endArrow=none;html=1;rounded=0;fontSize=12;startSize=8;endSize=8;curved=1;" parent="1" edge="1">
          <mxGeometry width="50" height="50" relative="1" as="geometry">
            <mxPoint x="68.5" y="878" as="sourcePoint" />
            <mxPoint x="69" y="782" as="targetPoint" />
          </mxGeometry>
        </mxCell>
        <mxCell id="lmmOF3_pl6mlVUFm9OXF-87" value="id_user" style="ellipse;whiteSpace=wrap;html=1;fillColor=#e3c800;fontColor=#000000;strokeColor=#B09500;" parent="1" vertex="1">
          <mxGeometry x="334" y="910" width="70" height="30" as="geometry" />
        </mxCell>
        <mxCell id="lmmOF3_pl6mlVUFm9OXF-88" value="email_user" style="ellipse;whiteSpace=wrap;html=1;" parent="1" vertex="1">
          <mxGeometry x="162" y="909" width="70" height="30" as="geometry" />
        </mxCell>
        <mxCell id="lmmOF3_pl6mlVUFm9OXF-89" value="nome_user" style="ellipse;whiteSpace=wrap;html=1;" parent="1" vertex="1">
          <mxGeometry x="164" y="721" width="70" height="30" as="geometry" />
        </mxCell>
        <mxCell id="lmmOF3_pl6mlVUFm9OXF-90" value="whatsapp" style="ellipse;whiteSpace=wrap;html=1;" parent="1" vertex="1">
          <mxGeometry x="246" y="909" width="70" height="30" as="geometry" />
        </mxCell>
        <mxCell id="lmmOF3_pl6mlVUFm9OXF-91" value="senha_user" style="ellipse;whiteSpace=wrap;html=1;" parent="1" vertex="1">
          <mxGeometry x="79" y="909" width="70" height="30" as="geometry" />
        </mxCell>
        <mxCell id="lmmOF3_pl6mlVUFm9OXF-92" value="idade" style="ellipse;whiteSpace=wrap;html=1;" parent="1" vertex="1">
          <mxGeometry x="79" y="721" width="70" height="30" as="geometry" />
        </mxCell>
        <mxCell id="lmmOF3_pl6mlVUFm9OXF-95" value="nome_produto" style="ellipse;whiteSpace=wrap;html=1;" parent="1" vertex="1">
          <mxGeometry x="33" y="90" width="86" height="30" as="geometry" />
        </mxCell>
        <mxCell id="lmmOF3_pl6mlVUFm9OXF-96" value="" style="endArrow=none;html=1;rounded=0;fontSize=12;startSize=8;endSize=8;curved=1;entryX=0;entryY=0.5;entryDx=0;entryDy=0;" parent="1" target="lmmOF3_pl6mlVUFm9OXF-95" edge="1">
          <mxGeometry width="50" height="50" relative="1" as="geometry">
            <mxPoint x="18" y="105" as="sourcePoint" />
            <mxPoint x="32" y="105" as="targetPoint" />
          </mxGeometry>
        </mxCell>
        <mxCell id="lmmOF3_pl6mlVUFm9OXF-97" value="" style="endArrow=none;html=1;rounded=0;fontSize=12;startSize=8;endSize=8;curved=1;" parent="1" edge="1">
          <mxGeometry width="50" height="50" relative="1" as="geometry">
            <mxPoint x="369" y="878" as="sourcePoint" />
            <mxPoint x="68" y="878" as="targetPoint" />
          </mxGeometry>
        </mxCell>
        <mxCell id="lmmOF3_pl6mlVUFm9OXF-102" value="" style="endArrow=none;html=1;rounded=0;fontSize=12;startSize=8;endSize=8;curved=1;exitX=0.5;exitY=1;exitDx=0;exitDy=0;" parent="1" edge="1">
          <mxGeometry width="50" height="50" relative="1" as="geometry">
            <mxPoint x="114" y="878" as="sourcePoint" />
            <mxPoint x="114" y="908" as="targetPoint" />
          </mxGeometry>
        </mxCell>
        <mxCell id="lmmOF3_pl6mlVUFm9OXF-104" value="" style="endArrow=none;html=1;rounded=0;fontSize=12;startSize=8;endSize=8;curved=1;exitX=0.5;exitY=1;exitDx=0;exitDy=0;" parent="1" edge="1">
          <mxGeometry width="50" height="50" relative="1" as="geometry">
            <mxPoint x="197" y="878" as="sourcePoint" />
            <mxPoint x="197" y="908" as="targetPoint" />
          </mxGeometry>
        </mxCell>
        <mxCell id="lmmOF3_pl6mlVUFm9OXF-105" value="" style="endArrow=none;html=1;rounded=0;fontSize=12;startSize=8;endSize=8;curved=1;exitX=0.5;exitY=1;exitDx=0;exitDy=0;" parent="1" edge="1">
          <mxGeometry width="50" height="50" relative="1" as="geometry">
            <mxPoint x="280.83000000000004" y="878" as="sourcePoint" />
            <mxPoint x="280.83000000000004" y="908" as="targetPoint" />
          </mxGeometry>
        </mxCell>
        <mxCell id="lmmOF3_pl6mlVUFm9OXF-106" value="" style="endArrow=none;html=1;rounded=0;fontSize=12;startSize=8;endSize=8;curved=1;exitX=0.5;exitY=1;exitDx=0;exitDy=0;" parent="1" edge="1">
          <mxGeometry width="50" height="50" relative="1" as="geometry">
            <mxPoint x="369" y="879" as="sourcePoint" />
            <mxPoint x="369" y="909" as="targetPoint" />
          </mxGeometry>
        </mxCell>
        <mxCell id="lmmOF3_pl6mlVUFm9OXF-108" value="" style="endArrow=none;html=1;rounded=0;fontSize=12;startSize=8;endSize=8;curved=1;exitX=0.5;exitY=1;exitDx=0;exitDy=0;" parent="1" edge="1">
          <mxGeometry width="50" height="50" relative="1" as="geometry">
            <mxPoint x="113" y="751" as="sourcePoint" />
            <mxPoint x="113" y="781" as="targetPoint" />
          </mxGeometry>
        </mxCell>
        <mxCell id="lmmOF3_pl6mlVUFm9OXF-109" value="" style="endArrow=none;html=1;rounded=0;fontSize=12;startSize=8;endSize=8;curved=1;exitX=0.5;exitY=1;exitDx=0;exitDy=0;" parent="1" edge="1">
          <mxGeometry width="50" height="50" relative="1" as="geometry">
            <mxPoint x="196" y="751" as="sourcePoint" />
            <mxPoint x="196" y="781" as="targetPoint" />
          </mxGeometry>
        </mxCell>
        <mxCell id="lmmOF3_pl6mlVUFm9OXF-110" value="" style="endArrow=none;html=1;rounded=0;fontSize=12;startSize=8;endSize=8;curved=1;exitX=0.5;exitY=1;exitDx=0;exitDy=0;" parent="1" edge="1">
          <mxGeometry width="50" height="50" relative="1" as="geometry">
            <mxPoint x="279.83000000000004" y="751" as="sourcePoint" />
            <mxPoint x="279.83000000000004" y="781" as="targetPoint" />
          </mxGeometry>
        </mxCell>
        <mxCell id="lmmOF3_pl6mlVUFm9OXF-112" value="profissao" style="ellipse;whiteSpace=wrap;html=1;" parent="1" vertex="1">
          <mxGeometry x="246" y="721" width="70" height="30" as="geometry" />
        </mxCell>
        <mxCell id="lmmOF3_pl6mlVUFm9OXF-117" value="" style="endArrow=none;html=1;rounded=0;fontSize=12;startSize=8;endSize=8;curved=1;exitX=0.5;exitY=0;exitDx=0;exitDy=0;" parent="1" edge="1">
          <mxGeometry width="50" height="50" relative="1" as="geometry">
            <mxPoint x="328.20000000000005" y="1151" as="sourcePoint" />
            <mxPoint x="328.20000000000005" y="1121" as="targetPoint" />
          </mxGeometry>
        </mxCell>
        <mxCell id="lmmOF3_pl6mlVUFm9OXF-118" value="" style="endArrow=none;html=1;rounded=0;fontSize=12;startSize=8;endSize=8;curved=1;" parent="1" edge="1">
          <mxGeometry width="50" height="50" relative="1" as="geometry">
            <mxPoint x="378.20000000000005" y="1152" as="sourcePoint" />
            <mxPoint x="278.20000000000005" y="1152" as="targetPoint" />
          </mxGeometry>
        </mxCell>
        <mxCell id="lmmOF3_pl6mlVUFm9OXF-119" value="" style="endArrow=none;html=1;rounded=0;fontSize=12;startSize=8;endSize=8;curved=1;" parent="1" edge="1">
          <mxGeometry width="50" height="50" relative="1" as="geometry">
            <mxPoint x="278" y="1321" as="sourcePoint" />
            <mxPoint x="278.3800000000001" y="1151" as="targetPoint" />
          </mxGeometry>
        </mxCell>
        <mxCell id="lmmOF3_pl6mlVUFm9OXF-121" value="id_admin" style="ellipse;whiteSpace=wrap;html=1;fillColor=#e3c800;fontColor=#000000;strokeColor=#B09500;" parent="1" vertex="1">
          <mxGeometry x="194" y="1305" width="70" height="30" as="geometry" />
        </mxCell>
        <mxCell id="lmmOF3_pl6mlVUFm9OXF-123" value="username_admin" style="ellipse;whiteSpace=wrap;html=1;" parent="1" vertex="1">
          <mxGeometry x="168.5" y="1256" width="100" height="30" as="geometry" />
        </mxCell>
        <mxCell id="lmmOF3_pl6mlVUFm9OXF-124" value="email_admin" style="ellipse;whiteSpace=wrap;html=1;" parent="1" vertex="1">
          <mxGeometry x="179" y="1161" width="85" height="30" as="geometry" />
        </mxCell>
        <mxCell id="lmmOF3_pl6mlVUFm9OXF-126" value="" style="endArrow=none;html=1;rounded=0;fontSize=12;startSize=8;endSize=8;curved=1;" parent="1" edge="1">
          <mxGeometry width="50" height="50" relative="1" as="geometry">
            <mxPoint x="360" y="780" as="sourcePoint" />
            <mxPoint x="68" y="782" as="targetPoint" />
          </mxGeometry>
        </mxCell>
        <mxCell id="lmmOF3_pl6mlVUFm9OXF-128" value="senha_admin" style="ellipse;whiteSpace=wrap;html=1;" parent="1" vertex="1">
          <mxGeometry x="179" y="1211" width="85" height="30" as="geometry" />
        </mxCell>
        <mxCell id="lmmOF3_pl6mlVUFm9OXF-129" value="id_user" style="ellipse;whiteSpace=wrap;html=1;fillColor=#76608a;fontColor=#ffffff;strokeColor=#432D57;" parent="1" vertex="1">
          <mxGeometry x="392.5" y="1205" width="70" height="30" as="geometry" />
        </mxCell>
        <mxCell id="lmmOF3_pl6mlVUFm9OXF-130" value="id_crÃ©dito" style="ellipse;whiteSpace=wrap;html=1;fillColor=#76608a;strokeColor=#432D57;fontColor=#ffffff;" parent="1" vertex="1">
          <mxGeometry x="394" y="1160" width="70" height="30" as="geometry" />
        </mxCell>
        <mxCell id="lmmOF3_pl6mlVUFm9OXF-133" value="id_produto" style="ellipse;whiteSpace=wrap;html=1;fillColor=#76608a;fontColor=#ffffff;strokeColor=#432D57;" parent="1" vertex="1">
          <mxGeometry x="394" y="1259" width="70" height="30" as="geometry" />
        </mxCell>
        <mxCell id="lmmOF3_pl6mlVUFm9OXF-135" value="" style="endArrow=none;html=1;rounded=0;fontSize=12;startSize=8;endSize=8;curved=1;" parent="1" edge="1">
          <mxGeometry width="50" height="50" relative="1" as="geometry">
            <mxPoint x="379" y="1275" as="sourcePoint" />
            <mxPoint x="378.3800000000001" y="1151" as="targetPoint" />
          </mxGeometry>
        </mxCell>
        <mxCell id="lmmOF3_pl6mlVUFm9OXF-136" value="" style="endArrow=none;html=1;rounded=0;fontSize=12;startSize=8;endSize=8;curved=1;entryX=1;entryY=0.5;entryDx=0;entryDy=0;" parent="1" target="lmmOF3_pl6mlVUFm9OXF-124" edge="1">
          <mxGeometry width="50" height="50" relative="1" as="geometry">
            <mxPoint x="279" y="1176" as="sourcePoint" />
            <mxPoint x="279" y="1201" as="targetPoint" />
          </mxGeometry>
        </mxCell>
        <mxCell id="lmmOF3_pl6mlVUFm9OXF-137" value="" style="endArrow=none;html=1;rounded=0;fontSize=12;startSize=8;endSize=8;curved=1;entryX=1;entryY=0.5;entryDx=0;entryDy=0;" parent="1" target="lmmOF3_pl6mlVUFm9OXF-128" edge="1">
          <mxGeometry width="50" height="50" relative="1" as="geometry">
            <mxPoint x="279" y="1226" as="sourcePoint" />
            <mxPoint x="279" y="1201" as="targetPoint" />
          </mxGeometry>
        </mxCell>
        <mxCell id="lmmOF3_pl6mlVUFm9OXF-138" value="" style="endArrow=none;html=1;rounded=0;fontSize=12;startSize=8;endSize=8;curved=1;exitX=1;exitY=0.5;exitDx=0;exitDy=0;" parent="1" source="lmmOF3_pl6mlVUFm9OXF-123" edge="1">
          <mxGeometry width="50" height="50" relative="1" as="geometry">
            <mxPoint x="289" y="1271" as="sourcePoint" />
            <mxPoint x="279" y="1271" as="targetPoint" />
          </mxGeometry>
        </mxCell>
        <mxCell id="lmmOF3_pl6mlVUFm9OXF-139" value="" style="endArrow=none;html=1;rounded=0;fontSize=12;startSize=8;endSize=8;curved=1;exitX=1;exitY=0.5;exitDx=0;exitDy=0;" parent="1" edge="1">
          <mxGeometry width="50" height="50" relative="1" as="geometry">
            <mxPoint x="263.0000000000001" y="1319.9999999999998" as="sourcePoint" />
            <mxPoint x="278" y="1320" as="targetPoint" />
          </mxGeometry>
        </mxCell>
        <mxCell id="lmmOF3_pl6mlVUFm9OXF-140" value="" style="endArrow=none;html=1;rounded=0;fontSize=12;startSize=8;endSize=8;curved=1;entryX=0;entryY=0.5;entryDx=0;entryDy=0;" parent="1" target="lmmOF3_pl6mlVUFm9OXF-133" edge="1">
          <mxGeometry width="50" height="50" relative="1" as="geometry">
            <mxPoint x="379" y="1274" as="sourcePoint" />
            <mxPoint x="329" y="1154" as="targetPoint" />
          </mxGeometry>
        </mxCell>
        <mxCell id="lmmOF3_pl6mlVUFm9OXF-141" value="" style="endArrow=none;html=1;rounded=0;fontSize=12;startSize=8;endSize=8;curved=1;entryX=0;entryY=0.5;entryDx=0;entryDy=0;" parent="1" target="lmmOF3_pl6mlVUFm9OXF-129" edge="1">
          <mxGeometry width="50" height="50" relative="1" as="geometry">
            <mxPoint x="379" y="1220" as="sourcePoint" />
            <mxPoint x="329" y="1150" as="targetPoint" />
          </mxGeometry>
        </mxCell>
        <mxCell id="lmmOF3_pl6mlVUFm9OXF-144" value="Pedido" style="rounded=0;whiteSpace=wrap;html=1;fillColor=#e51400;fontColor=#ffffff;strokeColor=#B20000;" parent="1" vertex="1">
          <mxGeometry x="-90.5" y="555" width="120" height="60" as="geometry" />
        </mxCell>
        <mxCell id="lmmOF3_pl6mlVUFm9OXF-145" value="Adiciona" style="rhombus;whiteSpace=wrap;html=1;fillColor=#60a917;fontColor=#ffffff;strokeColor=#2D7600;" parent="1" vertex="1">
          <mxGeometry x="-70.5" y="425" width="80" height="80" as="geometry" />
        </mxCell>
        <mxCell id="lmmOF3_pl6mlVUFm9OXF-146" value="" style="endArrow=none;html=1;rounded=0;fontSize=12;startSize=8;endSize=8;curved=1;exitX=0.5;exitY=1;exitDx=0;exitDy=0;entryX=0.5;entryY=0;entryDx=0;entryDy=0;" parent="1" source="lmmOF3_pl6mlVUFm9OXF-2" target="lmmOF3_pl6mlVUFm9OXF-145" edge="1">
          <mxGeometry width="50" height="50" relative="1" as="geometry">
            <mxPoint x="210" y="485" as="sourcePoint" />
            <mxPoint x="260" y="435" as="targetPoint" />
          </mxGeometry>
        </mxCell>
        <mxCell id="lmmOF3_pl6mlVUFm9OXF-147" value="" style="endArrow=none;html=1;rounded=0;fontSize=12;startSize=8;endSize=8;curved=1;exitX=0.5;exitY=1;exitDx=0;exitDy=0;entryX=0.5;entryY=0;entryDx=0;entryDy=0;" parent="1" source="lmmOF3_pl6mlVUFm9OXF-145" target="lmmOF3_pl6mlVUFm9OXF-144" edge="1">
          <mxGeometry width="50" height="50" relative="1" as="geometry">
            <mxPoint x="210" y="485" as="sourcePoint" />
            <mxPoint x="260" y="435" as="targetPoint" />
          </mxGeometry>
        </mxCell>
        <mxCell id="lmmOF3_pl6mlVUFm9OXF-148" value="N" style="text;html=1;align=center;verticalAlign=middle;resizable=0;points=[];autosize=1;strokeColor=none;fillColor=none;fontSize=16;" parent="1" vertex="1">
          <mxGeometry x="-35" y="525" width="40" height="30" as="geometry" />
        </mxCell>
        <mxCell id="lmmOF3_pl6mlVUFm9OXF-149" value="N" style="text;html=1;align=center;verticalAlign=middle;resizable=0;points=[];autosize=1;strokeColor=none;fillColor=none;fontSize=16;" parent="1" vertex="1">
          <mxGeometry x="-40" y="395" width="40" height="30" as="geometry" />
        </mxCell>
        <mxCell id="lmmOF3_pl6mlVUFm9OXF-150" value="" style="endArrow=none;html=1;rounded=0;fontSize=12;startSize=8;endSize=8;curved=1;entryX=1;entryY=0.5;entryDx=0;entryDy=0;" parent="1" edge="1">
          <mxGeometry width="50" height="50" relative="1" as="geometry">
            <mxPoint x="-92" y="584.5" as="sourcePoint" />
            <mxPoint x="-132" y="584.5" as="targetPoint" />
          </mxGeometry>
        </mxCell>
        <mxCell id="lmmOF3_pl6mlVUFm9OXF-172" value="" style="endArrow=none;html=1;rounded=0;fontSize=12;startSize=8;endSize=8;curved=1;" parent="1" edge="1">
          <mxGeometry width="50" height="50" relative="1" as="geometry">
            <mxPoint x="-133.5" y="636" as="sourcePoint" />
            <mxPoint x="-133" y="540" as="targetPoint" />
          </mxGeometry>
        </mxCell>
        <mxCell id="lmmOF3_pl6mlVUFm9OXF-173" value="data_entrega" style="ellipse;whiteSpace=wrap;html=1;" parent="1" vertex="1">
          <mxGeometry x="-379" y="479" width="70" height="30" as="geometry" />
        </mxCell>
        <mxCell id="lmmOF3_pl6mlVUFm9OXF-174" value="status" style="ellipse;whiteSpace=wrap;html=1;" parent="1" vertex="1">
          <mxGeometry x="-296" y="479" width="70" height="30" as="geometry" />
        </mxCell>
        <mxCell id="lmmOF3_pl6mlVUFm9OXF-175" value="data_criaÃ§ao" style="ellipse;whiteSpace=wrap;html=1;" parent="1" vertex="1">
          <mxGeometry x="-213" y="481" width="70" height="30" as="geometry" />
        </mxCell>
        <mxCell id="lmmOF3_pl6mlVUFm9OXF-176" value="id_user" style="ellipse;whiteSpace=wrap;html=1;fillColor=#76608a;fontColor=#ffffff;strokeColor=#432D57;" parent="1" vertex="1">
          <mxGeometry x="-378" y="667" width="70" height="30" as="geometry" />
        </mxCell>
        <mxCell id="lmmOF3_pl6mlVUFm9OXF-177" value="id_produto" style="ellipse;whiteSpace=wrap;html=1;fillColor=#76608a;fontColor=#ffffff;strokeColor=#432D57;" parent="1" vertex="1">
          <mxGeometry x="-294" y="667" width="70" height="30" as="geometry" />
        </mxCell>
        <mxCell id="lmmOF3_pl6mlVUFm9OXF-178" value="" style="endArrow=none;html=1;rounded=0;fontSize=12;startSize=8;endSize=8;curved=1;" parent="1" edge="1">
          <mxGeometry width="50" height="50" relative="1" as="geometry">
            <mxPoint x="-133" y="634.5" as="sourcePoint" />
            <mxPoint x="-450" y="635" as="targetPoint" />
          </mxGeometry>
        </mxCell>
        <mxCell id="lmmOF3_pl6mlVUFm9OXF-179" value="" style="endArrow=none;html=1;rounded=0;fontSize=12;startSize=8;endSize=8;curved=1;exitX=0.5;exitY=1;exitDx=0;exitDy=0;" parent="1" edge="1">
          <mxGeometry width="50" height="50" relative="1" as="geometry">
            <mxPoint x="-343" y="636" as="sourcePoint" />
            <mxPoint x="-343" y="666" as="targetPoint" />
          </mxGeometry>
        </mxCell>
        <mxCell id="lmmOF3_pl6mlVUFm9OXF-180" value="" style="endArrow=none;html=1;rounded=0;fontSize=12;startSize=8;endSize=8;curved=1;exitX=0.5;exitY=1;exitDx=0;exitDy=0;" parent="1" edge="1">
          <mxGeometry width="50" height="50" relative="1" as="geometry">
            <mxPoint x="-260" y="636" as="sourcePoint" />
            <mxPoint x="-260" y="666" as="targetPoint" />
          </mxGeometry>
        </mxCell>
        <mxCell id="lmmOF3_pl6mlVUFm9OXF-181" value="" style="endArrow=none;html=1;rounded=0;fontSize=12;startSize=8;endSize=8;curved=1;exitX=0.5;exitY=1;exitDx=0;exitDy=0;" parent="1" edge="1">
          <mxGeometry width="50" height="50" relative="1" as="geometry">
            <mxPoint x="-178.16999999999996" y="636" as="sourcePoint" />
            <mxPoint x="-178.16999999999996" y="666" as="targetPoint" />
          </mxGeometry>
        </mxCell>
        <mxCell id="lmmOF3_pl6mlVUFm9OXF-182" value="" style="endArrow=none;html=1;rounded=0;fontSize=12;startSize=8;endSize=8;curved=1;exitX=0.5;exitY=1;exitDx=0;exitDy=0;" parent="1" edge="1">
          <mxGeometry width="50" height="50" relative="1" as="geometry">
            <mxPoint x="-344" y="509" as="sourcePoint" />
            <mxPoint x="-344" y="539" as="targetPoint" />
          </mxGeometry>
        </mxCell>
        <mxCell id="lmmOF3_pl6mlVUFm9OXF-183" value="" style="endArrow=none;html=1;rounded=0;fontSize=12;startSize=8;endSize=8;curved=1;exitX=0.5;exitY=1;exitDx=0;exitDy=0;" parent="1" edge="1">
          <mxGeometry width="50" height="50" relative="1" as="geometry">
            <mxPoint x="-261" y="509" as="sourcePoint" />
            <mxPoint x="-261" y="539" as="targetPoint" />
          </mxGeometry>
        </mxCell>
        <mxCell id="lmmOF3_pl6mlVUFm9OXF-184" value="" style="endArrow=none;html=1;rounded=0;fontSize=12;startSize=8;endSize=8;curved=1;" parent="1" edge="1">
          <mxGeometry width="50" height="50" relative="1" as="geometry">
            <mxPoint x="-178.07000000000005" y="511" as="sourcePoint" />
            <mxPoint x="-178.24" y="540.5" as="targetPoint" />
          </mxGeometry>
        </mxCell>
        <mxCell id="lmmOF3_pl6mlVUFm9OXF-185" value="" style="endArrow=none;html=1;rounded=0;fontSize=12;startSize=8;endSize=8;curved=1;" parent="1" edge="1">
          <mxGeometry width="50" height="50" relative="1" as="geometry">
            <mxPoint x="-133" y="539.5" as="sourcePoint" />
            <mxPoint x="-440" y="540" as="targetPoint" />
          </mxGeometry>
        </mxCell>
        <mxCell id="lmmOF3_pl6mlVUFm9OXF-186" value="id_pedido" style="ellipse;whiteSpace=wrap;html=1;fillColor=#e3c800;fontColor=#000000;strokeColor=#B09500;" parent="1" vertex="1">
          <mxGeometry x="-212" y="667" width="70" height="30" as="geometry" />
        </mxCell>
        <mxCell id="kdhl19YSwIXW0h-w2kLb-3" value="id_personalizacao" style="ellipse;whiteSpace=wrap;html=1;fillColor=#76608a;fontColor=#ffffff;strokeColor=#432D57;" vertex="1" parent="1">
          <mxGeometry x="-500" y="669" width="99.5" height="30" as="geometry" />
        </mxCell>
        <mxCell id="kdhl19YSwIXW0h-w2kLb-4" value="" style="endArrow=none;html=1;rounded=0;exitX=0.5;exitY=0;exitDx=0;exitDy=0;" edge="1" parent="1" source="kdhl19YSwIXW0h-w2kLb-3">
          <mxGeometry width="50" height="50" relative="1" as="geometry">
            <mxPoint x="-60" y="695" as="sourcePoint" />
            <mxPoint x="-450" y="635" as="targetPoint" />
          </mxGeometry>
        </mxCell>
        <mxCell id="kdhl19YSwIXW0h-w2kLb-5" value="personalizavel" style="ellipse;whiteSpace=wrap;html=1;" vertex="1" parent="1">
          <mxGeometry x="-180" y="90" width="90" height="30" as="geometry" />
        </mxCell>
        <mxCell id="kdhl19YSwIXW0h-w2kLb-6" value="" style="endArrow=none;html=1;rounded=0;fontSize=12;startSize=8;endSize=8;curved=1;exitX=1;exitY=0.5;exitDx=0;exitDy=0;" edge="1" parent="1" source="kdhl19YSwIXW0h-w2kLb-5">
          <mxGeometry width="50" height="50" relative="1" as="geometry">
            <mxPoint x="160" y="200" as="sourcePoint" />
            <mxPoint x="-80" y="105" as="targetPoint" />
          </mxGeometry>
        </mxCell>
        <mxCell id="kdhl19YSwIXW0h-w2kLb-7" value="" style="endArrow=none;html=1;rounded=0;exitX=0;exitY=0.5;exitDx=0;exitDy=0;" edge="1" parent="1" source="lmmOF3_pl6mlVUFm9OXF-130">
          <mxGeometry width="50" height="50" relative="1" as="geometry">
            <mxPoint x="70" y="1195" as="sourcePoint" />
            <mxPoint x="380" y="1175" as="targetPoint" />
          </mxGeometry>
        </mxCell>
        <mxCell id="kdhl19YSwIXW0h-w2kLb-8" value="tipo" style="ellipse;whiteSpace=wrap;html=1;" vertex="1" parent="1">
          <mxGeometry x="32" y="35" width="90" height="30" as="geometry" />
        </mxCell>
        <mxCell id="kdhl19YSwIXW0h-w2kLb-10" value="conteudo" style="ellipse;whiteSpace=wrap;html=1;" vertex="1" parent="1">
          <mxGeometry x="-485" y="479" width="90" height="30" as="geometry" />
        </mxCell>
        <mxCell id="kdhl19YSwIXW0h-w2kLb-11" value="credito" style="ellipse;whiteSpace=wrap;html=1;" vertex="1" parent="1">
          <mxGeometry x="325" y="720" width="70" height="30" as="geometry" />
        </mxCell>
        <mxCell id="kdhl19YSwIXW0h-w2kLb-12" value="per_nome" style="ellipse;whiteSpace=wrap;html=1;" vertex="1" parent="1">
          <mxGeometry x="-180" y="35" width="90" height="30" as="geometry" />
        </mxCell>
        <mxCell id="kdhl19YSwIXW0h-w2kLb-13" value="" style="endArrow=none;html=1;rounded=0;fontSize=12;startSize=8;endSize=8;curved=1;exitX=1;exitY=0.5;exitDx=0;exitDy=0;" edge="1" parent="1" source="kdhl19YSwIXW0h-w2kLb-12">
          <mxGeometry width="50" height="50" relative="1" as="geometry">
            <mxPoint x="-101" y="65" as="sourcePoint" />
            <mxPoint x="-80" y="50" as="targetPoint" />
          </mxGeometry>
        </mxCell>
        <mxCell id="kdhl19YSwIXW0h-w2kLb-14" value="" style="endArrow=none;html=1;rounded=0;fontSize=12;startSize=8;endSize=8;curved=1;entryX=0;entryY=0.5;entryDx=0;entryDy=0;" edge="1" parent="1">
          <mxGeometry width="50" height="50" relative="1" as="geometry">
            <mxPoint x="18" y="49.9" as="sourcePoint" />
            <mxPoint x="32" y="49.9" as="targetPoint" />
          </mxGeometry>
        </mxCell>
        <mxCell id="kdhl19YSwIXW0h-w2kLb-15" value="" style="endArrow=none;html=1;rounded=0;fontSize=12;startSize=8;endSize=8;curved=1;exitX=0.5;exitY=1;exitDx=0;exitDy=0;" edge="1" parent="1">
          <mxGeometry width="50" height="50" relative="1" as="geometry">
            <mxPoint x="-440.19" y="509" as="sourcePoint" />
            <mxPoint x="-440" y="540" as="targetPoint" />
          </mxGeometry>
        </mxCell>
        <mxCell id="kdhl19YSwIXW0h-w2kLb-16" value="" style="endArrow=none;html=1;rounded=0;fontSize=12;startSize=8;endSize=8;curved=1;exitX=0.5;exitY=1;exitDx=0;exitDy=0;" edge="1" parent="1">
          <mxGeometry width="50" height="50" relative="1" as="geometry">
            <mxPoint x="359.77" y="750" as="sourcePoint" />
            <mxPoint x="359.77" y="780" as="targetPoint" />
          </mxGeometry>
        </mxCell>
      </root>
    </mxGraphModel>
  </diagram>
</mxfile>
